<?xml version="1.0" encoding="UTF-8"?>
<svg version="1.1" xmlns="http://www.w3.org/2000/svg" width="162" height="85">
<path d="M0 0 C53.46 0 106.92 0 162 0 C162 28.05 162 56.1 162 85 C108.54 85 55.08 85 0 85 C0 56.95 0 28.9 0 0 Z " fill="#FEFEFE" transform="translate(0,0)"/>
<path d="M0 0 C0.99 0.33 1.98 0.66 3 1 C2.67 1.99 2.34 2.98 2 4 C3.32 4 4.64 4 6 4 C5.34 3.34 4.68 2.68 4 2 C4.73605469 2.144375 5.47210938 2.28875 6.23046875 2.4375 C7.69419922 2.7159375 7.69419922 2.7159375 9.1875 3 C10.63189453 3.2784375 10.63189453 3.2784375 12.10546875 3.5625 C14.7934206 3.96877612 17.28771019 4.07933572 20 4 C20.33 3.34 20.66 2.68 21 2 C21.33 3.65 21.66 5.3 22 7 C20.68 7.33 19.36 7.66 18 8 C17.855625 8.78375 17.71125 9.5675 17.5625 10.375 C17 13 17 13 16 15 C16.97839844 15.00386719 16.97839844 15.00386719 17.9765625 15.0078125 C22.86610444 15.22416391 26.09847334 15.45967829 29.625 19.0625 C30.40875 20.031875 31.1925 21.00125 32 22 C30.58319756 26.32046898 28.46236215 29.00461199 25.375 32.3125 C24.55773437 33.19550781 23.74046875 34.07851563 22.8984375 34.98828125 C22.27195312 35.65214844 21.64546875 36.31601562 21 37 C21.495 37.495 21.495 37.495 22 38 C22.09909302 40.33160055 22.12970504 42.66629942 22.125 45 C22.12886719 46.918125 22.12886719 46.918125 22.1328125 48.875 C22 52 22 52 21 53 C19.50261876 53.0979057 18.00057108 53.12974864 16.5 53.125 C15.6853125 53.12757812 14.870625 53.13015625 14.03125 53.1328125 C12 53 12 53 11 52 C10.92741054 49.81360547 10.91626217 47.62499611 10.9375 45.4375 C10.94652344 44.23996094 10.95554687 43.04242188 10.96484375 41.80859375 C10.97644531 40.88175781 10.98804687 39.95492187 11 39 C11.66 39 12.32 39 13 39 C11.5645497 37.22750476 10.12656197 35.45706424 8.6875 33.6875 C7.88699219 32.70136719 7.08648437 31.71523438 6.26171875 30.69921875 C4.18310599 28.09544366 4.18310599 28.09544366 2.265625 26.421875 C0.09702628 23.98554804 0.12832447 21.31094857 -0.1484375 18.1640625 C0 16 0 16 1.9375 13.4375 C2.618125 12.963125 3.29875 12.48875 4 12 C2.88625 11.38125 2.88625 11.38125 1.75 10.75 C-0.92306937 9.04895586 -2.92355835 7.38406263 -5 5 C-5 4.34 -5 3.68 -5 3 C-3.35 3 -1.7 3 0 3 C0 2.01 0 1.02 0 0 Z " fill="#278EC6" transform="translate(59,18)"/>
<path d="M0 0 C0.99 0.33 1.98 0.66 3 1 C2.67 1.99 2.34 2.98 2 4 C3.32 4 4.64 4 6 4 C5.34 3.34 4.68 2.68 4 2 C4.73605469 2.144375 5.47210938 2.28875 6.23046875 2.4375 C7.69419922 2.7159375 7.69419922 2.7159375 9.1875 3 C10.63189453 3.2784375 10.63189453 3.2784375 12.10546875 3.5625 C14.7934206 3.96877612 17.28771019 4.07933572 20 4 C20.33 3.34 20.66 2.68 21 2 C21.33 3.65 21.66 5.3 22 7 C20.68 7.33 19.36 7.66 18 8 C17.9175 8.763125 17.835 9.52625 17.75 10.3125 C17 13 17 13 15.375 14.8125 C12.1686245 16.41568775 9.53249148 16.20379759 6 16 C6 15.01 6 14.02 6 13 C7.65 12.67 9.3 12.34 11 12 C8.22495248 10.22396958 6.94053733 10.00324342 3.5625 10.1875 C0 10 0 10 -2.9375 7.625 C-5 5 -5 5 -5 3 C-3.35 3 -1.7 3 0 3 C0 2.01 0 1.02 0 0 Z " fill="#E0E4F1" transform="translate(59,18)"/>
<path d="M0 0 C2.125 0.9375 2.125 0.9375 4 2 C4.66 1.34 5.32 0.68 6 0 C6.99 0 7.98 0 9 0 C9.02685412 2.31243792 9.04632841 4.6249627 9.0625 6.9375 C9.07410156 8.22527344 9.08570312 9.51304688 9.09765625 10.83984375 C9 14 9 14 8 15 C6.50261876 15.0979057 5.00057108 15.12974864 3.5 15.125 C2.6853125 15.12757812 1.870625 15.13015625 1.03125 15.1328125 C-1 15 -1 15 -2 14 C-2.07258946 11.81360547 -2.08373783 9.62499611 -2.0625 7.4375 C-2.05347656 6.23996094 -2.04445313 5.04242188 -2.03515625 3.80859375 C-2.02355469 2.88175781 -2.01195313 1.95492187 -2 1 C-1.34 0.67 -0.68 0.34 0 0 Z " fill="#F2F1F3" transform="translate(72,56)"/>
<path d="M0 0 C0.33 0.99 0.66 1.98 1 3 C2.65 2.67 4.3 2.34 6 2 C6 2.66 6 3.32 6 4 C8.64 4 11.28 4 14 4 C14 4.33 14 4.66 14 5 C11.03 5 8.06 5 5 5 C6.65 9.29 8.3 13.58 10 18 C10.99 17.01 11.98 16.02 13 15 C13.33 16.32 13.66 17.64 14 19 C12.68 19.99 11.36 20.98 10 22 C5.90008045 17.99592273 1.8457469 13.94190998 -2.0625 9.75 C-2.65160156 9.12609375 -3.24070313 8.5021875 -3.84765625 7.859375 C-5 6 -5 6 -4.8125 3.84375 C-4 2 -4 2 -1.9375 0.75 C-1.298125 0.5025 -0.65875 0.255 0 0 Z " fill="#147EC0" transform="translate(65,37)"/>
<path d="M0 0 C3 1 3 1 4.16796875 2.84765625 C5.11197917 4.8984375 6.05598958 6.94921875 7 9 C8.32 6.03 9.64 3.06 11 0 C11.99 0 12.98 0 14 0 C14 4.62 14 9.24 14 14 C13.34 14 12.68 14 12 14 C11.67 12.02 11.34 10.04 11 8 C10.01 9.98 9.02 11.96 8 14 C7.34 14 6.68 14 6 14 C5.01 12.02 4.02 10.04 3 8 C2.67 9.98 2.34 11.96 2 14 C1.34 14 0.68 14 0 14 C0 9.38 0 4.76 0 0 Z " fill="#3E2262" transform="translate(53,57)"/>
<path d="M0 0 C1.859375 0.1953125 1.859375 0.1953125 4 1 C5.265625 3.1796875 5.265625 3.1796875 6.25 5.875 C6.58515625 6.75929688 6.9203125 7.64359375 7.265625 8.5546875 C8 11 8 11 8 14 C7.01 13.67 6.02 13.34 5 13 C5 12.34 5 11.68 5 11 C2.69 11 0.38 11 -2 11 C-2 11.99 -2 12.98 -2 14 C-2.99 14 -3.98 14 -5 14 C-4.54636829 12.41531323 -4.08688548 10.83230076 -3.625 9.25 C-3.36976562 8.36828125 -3.11453125 7.4865625 -2.8515625 6.578125 C-2.0790066 4.23919428 -1.16374324 2.16557438 0 0 Z " fill="#422464" transform="translate(88,57)"/>
<path d="M0 0 C1.6852084 4.07679159 0.16939007 6.83075593 -1.4375 10.75 C-1.91058594 11.92046875 -2.38367188 13.0909375 -2.87109375 14.296875 C-3.24363281 15.18890625 -3.61617188 16.0809375 -4 17 C-6.24151882 14.75848118 -6.96301325 12.9932888 -8.125 10.0625 C-8.65480469 8.74958984 -8.65480469 8.74958984 -9.1953125 7.41015625 C-10 5 -10 5 -10 2 C-9.04287109 1.90912109 -9.04287109 1.90912109 -8.06640625 1.81640625 C-6.82697266 1.69072266 -6.82697266 1.69072266 -5.5625 1.5625 C-4.73878906 1.48128906 -3.91507812 1.40007813 -3.06640625 1.31640625 C-1.01337975 1.21069185 -1.01337975 1.21069185 0 0 Z " fill="#04C1FA" transform="translate(80,40)"/>
<path d="M0 0 C0.99 0.33 1.98 0.66 3 1 C2.67 1.99 2.34 2.98 2 4 C3.32 4 4.64 4 6 4 C5.34 3.34 4.68 2.68 4 2 C4.73605469 2.144375 5.47210938 2.28875 6.23046875 2.4375 C7.69419922 2.7159375 7.69419922 2.7159375 9.1875 3 C10.63189453 3.2784375 10.63189453 3.2784375 12.10546875 3.5625 C14.7934206 3.96877612 17.28771019 4.07933572 20 4 C20.33 3.34 20.66 2.68 21 2 C21.33 3.65 21.66 5.3 22 7 C20.68 7.33 19.36 7.66 18 8 C18.33 7.01 18.66 6.02 19 5 C17.35 5.33 15.7 5.66 14 6 C14 6.66 14 7.32 14 8 C13.25234375 7.855625 12.5046875 7.71125 11.734375 7.5625 C10.74953125 7.376875 9.7646875 7.19125 8.75 7 C7.77546875 6.814375 6.8009375 6.62875 5.796875 6.4375 C2.81315721 5.89696983 2.81315721 5.89696983 -1 6 C0.98 6.66 2.96 7.32 5 8 C3.02 8.99 3.02 8.99 1 10 C-1.04119788 8.38405168 -3.04072937 6.7143618 -5 5 C-5 4.34 -5 3.68 -5 3 C-3.35 3 -1.7 3 0 3 C0 2.01 0 1.02 0 0 Z " fill="#8980A0" transform="translate(59,18)"/>
<path d="M0 0 C6.8359375 -0.1953125 6.8359375 -0.1953125 9 0 C11 2 11 2 11 5 C10.34 5 9.68 5 9 5 C8.67 4.34 8.34 3.68 8 3 C4.97065509 2.34227572 4.97065509 2.34227572 2 2 C2 3.32 2 4.64 2 6 C3.65 6 5.3 6 7 6 C6.0409375 6.37125 6.0409375 6.37125 5.0625 6.75 C2.81258459 7.81562433 2.81258459 7.81562433 2.25 10.125 C2.1675 10.74375 2.085 11.3625 2 12 C3.98 11.67 5.96 11.34 8 11 C8 9.35 8 7.7 8 6 C8.99 6.66 9.98 7.32 11 8 C10.125 12.875 10.125 12.875 9 14 C5.99668982 14.14193337 3.00782866 14.04236378 0 14 C0 9.38 0 4.76 0 0 Z " fill="#402462" transform="translate(98,57)"/>
<path d="M0 0 C0 0.66 0 1.32 0 2 C-1.65 2.33 -3.3 2.66 -5 3 C-5 3.99 -5 4.98 -5 6 C0.3086849 5.41825155 0.3086849 5.41825155 5 3 C5 3.66 5 4.32 5 5 C8.3 5.33 11.6 5.66 15 6 C15 6.33 15 6.66 15 7 C9.06 7 3.12 7 -3 7 C-3 7.66 -3 8.32 -3 9 C-4.98 9.66 -6.96 10.32 -9 11 C-9.66 9.35 -10.32 7.7 -11 6 C-9.68 4.68 -8.36 3.36 -7 2 C-7.99 1.34 -8.98 0.68 -10 0 C-6.33694766 -0.74926071 -3.57644848 -1.2380014 0 0 Z " fill="#877E9C" transform="translate(70,28)"/>
<path d="M0 0 C0.66 0 1.32 0 2 0 C2.33 3.63 2.66 7.26 3 11 C5.97 11.495 5.97 11.495 9 12 C9 8.04 9 4.08 9 0 C9.66 0 10.32 0 11 0 C11.02685938 2.14576637 11.04633088 4.29162645 11.0625 6.4375 C11.07410156 7.63246094 11.08570312 8.82742187 11.09765625 10.05859375 C11 13 11 13 10 14 C8.50261876 14.0979057 7.00057108 14.12974864 5.5 14.125 C4.6853125 14.12757812 3.870625 14.13015625 3.03125 14.1328125 C1 14 1 14 0 13 C-0.07258946 10.81360547 -0.08373783 8.62499611 -0.0625 6.4375 C-0.05347656 5.23996094 -0.04445313 4.04242188 -0.03515625 2.80859375 C-0.02355469 1.88175781 -0.01195313 0.95492187 0 0 Z " fill="#301058" transform="translate(70,57)"/>
<path d="M0 0 C2.31 0 4.62 0 7 0 C1.78894472 9.99497487 1.78894472 9.99497487 -2 13 C-2.66 13 -3.32 13 -4 13 C-4.125 7.25 -4.125 7.25 -3 5 C-2.34 5 -1.68 5 -1 5 C-0.67 3.35 -0.34 1.7 0 0 Z " fill="#75A4CC" transform="translate(82,42)"/>
<path d="M0 0 C1.98 0 3.96 0 6 0 C6.66 1.32 7.32 2.64 8 4 C7.34 4 6.68 4 6 4 C6.185625 4.804375 6.37125 5.60875 6.5625 6.4375 C6.706875 7.283125 6.85125 8.12875 7 9 C6 10 6 10 2.9375 10.0625 C1.968125 10.041875 0.99875 10.02125 0 10 C0.185625 9.278125 0.37125 8.55625 0.5625 7.8125 C1.01995307 4.87173027 0.73516357 2.85896942 0 0 Z " fill="#B8B0C2" transform="translate(100,59)"/>
<path d="M0 0 C3 1 3 1 4.6875 3.75 C5.93950669 6.85020705 6.28970125 8.71671912 6 12 C5.01 10.68 4.02 9.36 3 8 C2.67 9.98 2.34 11.96 2 14 C1.34 14 0.68 14 0 14 C0 9.38 0 4.76 0 0 Z " fill="#34155A" transform="translate(53,57)"/>
<path d="M0 0 C0.33 0.99 0.66 1.98 1 3 C2.65 2.67 4.3 2.34 6 2 C6 2.66 6 3.32 6 4 C8.64 4 11.28 4 14 4 C14 4.33 14 4.66 14 5 C11.03 5 8.06 5 5 5 C4.67 5.66 4.34 6.32 4 7 C4 6.34 4 5.68 4 5 C2.02 5.33 0.04 5.66 -2 6 C-1.34 7.32 -0.68 8.64 0 10 C-1.65 8.68 -3.3 7.36 -5 6 C-4.75 4.125 -4.75 4.125 -4 2 C-1.9375 0.75 -1.9375 0.75 0 0 Z " fill="#37538C" transform="translate(65,37)"/>
<path d="M0 0 C1.32 0.33 2.64 0.66 4 1 C4 3.64 4 6.28 4 9 C1.69 9 -0.62 9 -3 9 C-2.01 6.03 -1.02 3.06 0 0 Z " fill="#472D68" transform="translate(88,57)"/>
<path d="M0 0 C1.41750563 0.11509661 2.83401169 0.24253658 4.25 0.375 C5.03890625 0.44460937 5.8278125 0.51421875 6.640625 0.5859375 C9.085877 1.01507113 10.84836903 1.78600638 13 3 C12.67 3.99 12.34 4.98 12 6 C11.01 5.67 10.02 5.34 9 5 C7.00038436 4.96079185 4.99950636 4.95556653 3 5 C3 4.34 3 3.68 3 3 C1.54166642 1.37485532 1.54166642 1.37485532 0 0 Z " fill="#EBEFF7" transform="translate(57,23)"/>
<path d="M0 0 C0.33 0.66 0.66 1.32 1 2 C2.98 2 4.96 2 7 2 C7.33 1.34 7.66 0.68 8 0 C8.33 0.99 8.66 1.98 9 3 C7.35 4.65 5.7 6.3 4 8 C4.66 6.68 5.32 5.36 6 4 C3.03 3.505 3.03 3.505 0 3 C-0.33 4.65 -0.66 6.3 -1 8 C-2.2077558 4.37673261 -1.54311128 3.35853631 0 0 Z " fill="#505586" transform="translate(82,39)"/>
<path d="M0 0 C1.65 0 3.3 0 5 0 C3.79618552 2.49361571 2.54571278 4.68143083 1 7 C-0.32 6.67 -1.64 6.34 -3 6 C-3 5.34 -3 4.68 -3 4 C-2.01 3.67 -1.02 3.34 0 3 C0 2.01 0 1.02 0 0 Z " fill="#69667C" transform="translate(77,14)"/>
<path d="M0 0 C1.98 0 3.96 0 6 0 C6 1.32 6 2.64 6 4 C4.02 4 2.04 4 0 4 C0 2.68 0 1.36 0 0 Z " fill="#E8E6EB" transform="translate(100,65)"/>
<path d="M0 0 C2 2 2 2 3 5 C3.99 4.01 4.98 3.02 6 2 C6.33 3.32 6.66 4.64 7 6 C5.68 6.99 4.36 7.98 3 9 C0.9375 6.75 0.9375 6.75 -1 4 C-0.75 1.6875 -0.75 1.6875 0 0 Z " fill="#373F7A" transform="translate(72,50)"/>
<path d="M0 0 C1.98 0.495 1.98 0.495 4 1 C4.33 2.32 4.66 3.64 5 5 C3.02 5 1.04 5 -1 5 C-0.67 3.35 -0.34 1.7 0 0 Z " fill="#85B0CC" transform="translate(84,36)"/>
<path d="M0 0 C2 2 2 2 2 5 C0.68 5.33 -0.64 5.66 -2 6 C-1.67 5.01 -1.34 4.02 -1 3 C-2.98 3.66 -4.96 4.32 -7 5 C-7.99 4.01 -8.98 3.02 -10 2 C-6.7 2 -3.4 2 0 2 C0 1.34 0 0.68 0 0 Z " fill="#685782" transform="translate(79,20)"/>
<path d="M0 0 C0 0.66 0 1.32 0 2 C-2.75 2.6875 -2.75 2.6875 -6 3 C-8.375 1.5625 -8.375 1.5625 -10 0 C-6.33694766 -0.74926071 -3.57644848 -1.2380014 0 0 Z " fill="#8884A2" transform="translate(70,28)"/>
<path d="M0 0 C0.99 0.33 1.98 0.66 3 1 C3.33 1.99 3.66 2.98 4 4 C1.36 4 -1.28 4 -4 4 C-2.68 2.68 -1.36 1.36 0 0 Z " fill="#87D5F6" transform="translate(75,36)"/>
<path d="M0 0 C-1.44253657 3.36591866 -3.33264727 5.51047079 -6 8 C-5.62403791 5.21788056 -5.32681541 3.4120716 -3.5625 1.1875 C-2 0 -2 0 0 0 Z " fill="#86D5F6" transform="translate(84,47)"/>
<path d="M0 0 C0.66 0.33 1.32 0.66 2 1 C2.625 3.5625 2.625 3.5625 3 6 C1.68 6 0.36 6 -1 6 C-0.67 4.02 -0.34 2.04 0 0 Z " fill="#E1DFE5" transform="translate(89,60)"/>
</svg>
